<?xml version="1.0" encoding="UTF-8" standalone="no"?>
<!-- Created with Inkscape (http://www.inkscape.org/) -->

<svg
   width="210mm"
   height="297mm"
   viewBox="0 0 210 297"
   version="1.1"
   id="svg1"
   inkscape:version="1.4.2 (ebf0e940, 2025-05-08)"
   sodipodi:docname="shield_shape.svg"
   inkscape:export-filename="DbC_Shield.png"
   inkscape:export-xdpi="61.93"
   inkscape:export-ydpi="61.93"
   xmlns:inkscape="http://www.inkscape.org/namespaces/inkscape"
   xmlns:sodipodi="http://sodipodi.sourceforge.net/DTD/sodipodi-0.dtd"
   xmlns:xlink="http://www.w3.org/1999/xlink"
   xmlns="http://www.w3.org/2000/svg"
   xmlns:svg="http://www.w3.org/2000/svg">
  <sodipodi:namedview
     id="namedview1"
     pagecolor="#ffffff"
     bordercolor="#000000"
     borderopacity="0.25"
     inkscape:showpageshadow="2"
     inkscape:pageopacity="0.0"
     inkscape:pagecheckerboard="0"
     inkscape:deskcolor="#d1d1d1"
     inkscape:document-units="mm"
     inkscape:zoom="0.35355339"
     inkscape:cx="213.54625"
     inkscape:cy="586.89863"
     inkscape:window-width="1224"
     inkscape:window-height="734"
     inkscape:window-x="0"
     inkscape:window-y="34"
     inkscape:window-maximized="0"
     inkscape:current-layer="layer1"
     showguides="false" />
  <defs
     id="defs1">
    <linearGradient
       id="swatch216"
       inkscape:swatch="solid">
      <stop
         style="stop-color:#47392a;stop-opacity:1;"
         offset="0"
         id="stop216" />
    </linearGradient>
    <linearGradient
       id="swatch215"
       inkscape:swatch="solid">
      <stop
         style="stop-color:#000000;stop-opacity:1;"
         offset="0"
         id="stop215" />
    </linearGradient>
    <linearGradient
       id="swatch214"
       inkscape:swatch="solid">
      <stop
         style="stop-color:#000000;stop-opacity:1;"
         offset="0"
         id="stop214" />
    </linearGradient>
    <linearGradient
       id="swatch213"
       inkscape:swatch="solid">
      <stop
         style="stop-color:#000000;stop-opacity:1;"
         offset="0"
         id="stop213" />
    </linearGradient>
    <rect
       x="77"
       y="750"
       width="401"
       height="313"
       id="rect208" />
    <linearGradient
       id="swatch47"
       inkscape:swatch="solid">
      <stop
         style="stop-color:#000000;stop-opacity:1;"
         offset="0"
         id="stop47" />
    </linearGradient>
    <linearGradient
       id="swatch44"
       inkscape:swatch="solid">
      <stop
         style="stop-color:#000000;stop-opacity:1;"
         offset="0"
         id="stop44" />
    </linearGradient>
    <linearGradient
       id="swatch43"
       inkscape:swatch="solid">
      <stop
         style="stop-color:#ff00ff;stop-opacity:1;"
         offset="0"
         id="stop43" />
    </linearGradient>
    <linearGradient
       id="swatch42"
       inkscape:swatch="solid">
      <stop
         style="stop-color:#000000;stop-opacity:1;"
         offset="0"
         id="stop42" />
    </linearGradient>
    <linearGradient
       id="swatch40"
       inkscape:swatch="solid">
      <stop
         style="stop-color:#000000;stop-opacity:1;"
         offset="0"
         id="stop40" />
    </linearGradient>
    <linearGradient
       id="swatch39"
       inkscape:swatch="solid">
      <stop
         style="stop-color:#000000;stop-opacity:1;"
         offset="0"
         id="stop39" />
    </linearGradient>
    <linearGradient
       id="swatch37"
       inkscape:swatch="solid">
      <stop
         style="stop-color:#ff00ff;stop-opacity:1;"
         offset="0"
         id="stop37" />
    </linearGradient>
    <linearGradient
       id="swatch36"
       inkscape:swatch="solid">
      <stop
         style="stop-color:#000000;stop-opacity:1;"
         offset="0"
         id="stop36" />
    </linearGradient>
    <linearGradient
       id="swatch35"
       inkscape:swatch="solid">
      <stop
         style="stop-color:#00ff00;stop-opacity:1;"
         offset="0"
         id="stop35" />
    </linearGradient>
    <linearGradient
       id="swatch26"
       inkscape:swatch="solid">
      <stop
         style="stop-color:#1a1a1a;stop-opacity:1;"
         offset="0"
         id="stop26" />
    </linearGradient>
    <linearGradient
       id="swatch25"
       inkscape:swatch="solid">
      <stop
         style="stop-color:#1a1a1a;stop-opacity:1;"
         offset="0"
         id="stop25" />
    </linearGradient>
    <linearGradient
       id="swatch24"
       inkscape:swatch="solid">
      <stop
         style="stop-color:#000000;stop-opacity:1;"
         offset="0"
         id="stop24" />
    </linearGradient>
    <linearGradient
       id="swatch21"
       inkscape:swatch="solid">
      <stop
         style="stop-color:#000000;stop-opacity:1;"
         offset="0"
         id="stop21" />
    </linearGradient>
    <linearGradient
       id="swatch19"
       inkscape:swatch="solid">
      <stop
         style="stop-color:#000000;stop-opacity:1;"
         offset="0"
         id="stop19" />
    </linearGradient>
    <linearGradient
       id="swatch16"
       inkscape:swatch="solid">
      <stop
         style="stop-color:#000000;stop-opacity:1;"
         offset="0"
         id="stop16" />
    </linearGradient>
    <linearGradient
       id="swatch6"
       inkscape:swatch="solid"
       inkscape:label="mystic red">
      <stop
         style="stop-color:#ffffff;stop-opacity:1;"
         offset="0"
         id="stop6" />
    </linearGradient>
    <rect
       x="63.63961"
       y="864.08449"
       width="255.97265"
       height="98.994949"
       id="rect5" />
    <linearGradient
       id="swatch4"
       inkscape:swatch="solid"
       inkscape:label="black">
      <stop
         style="stop-color:#b0c4de;stop-opacity:1;"
         offset="0"
         id="stop4" />
    </linearGradient>
    <linearGradient
       id="swatch2"
       inkscape:swatch="solid"
       inkscape:label="candy apple red">
      <stop
         style="stop-color:#000000;stop-opacity:1;"
         offset="0"
         id="stop2" />
    </linearGradient>
    <linearGradient
       inkscape:collect="always"
       xlink:href="#swatch6"
       id="linearGradient3"
       gradientUnits="userSpaceOnUse"
       x1="42.863777"
       y1="104.77913"
       x2="143.00549"
       y2="104.77913"
       gradientTransform="matrix(1.1891533,0,0,1.1891533,-5.1786333,13.313741)" />
    <linearGradient
       inkscape:collect="always"
       xlink:href="#swatch25"
       id="linearGradient25"
       x1="47.878956"
       y1="104.26612"
       x2="162.12103"
       y2="104.26612"
       gradientUnits="userSpaceOnUse"
       gradientTransform="matrix(1.1891533,0,0,1.1891533,-19.5262,13.313741)" />
    <rect
       x="63.63961"
       y="864.08449"
       width="255.97265"
       height="98.994949"
       id="rect27" />
    <rect
       x="63.63961"
       y="864.08449"
       width="255.97265"
       height="98.994949"
       id="rect30" />
    <linearGradient
       inkscape:collect="always"
       xlink:href="#swatch2"
       id="linearGradient33"
       gradientUnits="userSpaceOnUse"
       x1="51.404949"
       y1="104.52246"
       x2="158.59505"
       y2="104.52246"
       gradientTransform="matrix(1.1891533,0,0,1.1891533,-19.5262,13.313741)" />
    <linearGradient
       inkscape:collect="always"
       xlink:href="#swatch2"
       id="linearGradient36"
       x1="44.5425"
       y1="89.764549"
       x2="165.45708"
       y2="89.764549"
       gradientUnits="userSpaceOnUse"
       gradientTransform="translate(0.26458333,-1.3229167)" />
    <linearGradient
       inkscape:collect="always"
       xlink:href="#swatch2"
       id="linearGradient37"
       x1="40.872723"
       y1="88.909973"
       x2="169.65602"
       y2="88.909973"
       gradientUnits="userSpaceOnUse" />
    <linearGradient
       inkscape:collect="always"
       xlink:href="#swatch2"
       id="linearGradient40"
       x1="24.443987"
       y1="103.42521"
       x2="185.83"
       y2="103.42521"
       gradientUnits="userSpaceOnUse"
       gradientTransform="matrix(1.1453003,0,0,1.0628712,-15.078531,75.897437)" />
    <linearGradient
       inkscape:collect="always"
       xlink:href="#swatch4"
       id="linearGradient42"
       x1="51.404949"
       y1="104.52246"
       x2="158.59505"
       y2="104.52246"
       gradientUnits="userSpaceOnUse"
       gradientTransform="matrix(1.1891533,0,0,1.1891533,-19.5262,13.313741)" />
    <linearGradient
       inkscape:collect="always"
       xlink:href="#swatch4"
       id="linearGradient43"
       x1="50.905209"
       y1="104.48613"
       x2="159.09479"
       y2="104.48613"
       gradientUnits="userSpaceOnUse"
       gradientTransform="matrix(1.1891533,0,0,1.1891533,-19.5262,13.313741)" />
    <linearGradient
       inkscape:collect="always"
       xlink:href="#swatch4"
       id="linearGradient25-1"
       gradientUnits="userSpaceOnUse"
       x1="116.46223"
       y1="84.609993"
       x2="159.08653"
       y2="84.609993"
       gradientTransform="matrix(2.0011151,0,0,2.0011151,-170.9968,-49.401882)" />
    <linearGradient
       inkscape:collect="always"
       xlink:href="#swatch25"
       id="linearGradient206"
       gradientUnits="userSpaceOnUse"
       gradientTransform="matrix(7.8307116,0,0,7.8307116,-498.12992,-1114.0723)"
       x1="65.83577"
       y1="185.32462"
       x2="78.166801"
       y2="185.32462" />
    <linearGradient
       inkscape:collect="always"
       xlink:href="#swatch25"
       id="linearGradient208"
       gradientUnits="userSpaceOnUse"
       gradientTransform="matrix(7.8307116,0,0,7.8307116,-428.59665,-1209.7199)"
       x1="65.83577"
       y1="185.32462"
       x2="78.166801"
       y2="185.32462" />
    <linearGradient
       inkscape:collect="always"
       xlink:href="#swatch213"
       id="linearGradient213"
       x1="63.494795"
       y1="130.80606"
       x2="90.360405"
       y2="130.80606"
       gradientUnits="userSpaceOnUse"
       gradientTransform="matrix(1.1891533,0,0,1.1891533,-19.5262,13.313741)" />
    <linearGradient
       inkscape:collect="always"
       xlink:href="#swatch214"
       id="linearGradient214"
       x1="93.7948"
       y1="129.06502"
       x2="115.33206"
       y2="129.06502"
       gradientUnits="userSpaceOnUse"
       gradientTransform="matrix(1.1891533,0,0,1.1891533,-19.5262,13.313741)" />
    <linearGradient
       inkscape:collect="always"
       xlink:href="#swatch215"
       id="linearGradient215"
       x1="118.732"
       y1="130.20913"
       x2="145.499"
       y2="130.20913"
       gradientUnits="userSpaceOnUse"
       gradientTransform="matrix(1.1891533,0,0,1.1891533,-19.5262,13.313741)" />
  </defs>
  <g
     inkscape:label="Layer 1"
     inkscape:groupmode="layer"
     id="layer1">
    <path
       style="fill:#d40000;stroke:none;stroke-width:0.264583"
       d="M -8.0125258,171.18541 V 44.449999 c -11.1448932,8.29094 -22.7382882,13.741347 -35.9833412,8.73125 13.163332,36.984568 -16.876252,68.331261 -0.404714,93.846741 6.906121,10.69804 14.199734,17.64967 36.3880552,24.15742 z"
       id="path1-5"
       sodipodi:nodetypes="cccsc"
       inkscape:label="LHS shield" />
    <path
       id="rect33"
       style="opacity:1;fill:#ff5555;fill-opacity:1;stroke:url(#linearGradient40);stroke-width:4.28149;stroke-dasharray:none;stroke-opacity:1"
       d="m 90.17791,152.64264 c -31.331061,1.06538 -59.609704,5.43327 -77.260736,12.09021 l 6.060547,23.20059 -6.060547,31.07458 C 30.568207,212.3511 58.84685,207.98322 90.17791,206.91785 Z m 30.31396,0 v 54.27521 c 31.33105,1.06537 59.60969,5.43325 77.26073,12.09017 l -6.06055,-31.07458 6.06055,-23.20059 c -17.65104,-6.65694 -45.92967,-11.02483 -77.26073,-12.09021 z"
       inkscape:label="banner base" />
    <path
       style="baseline-shift:baseline;display:inline;overflow:visible;opacity:1;fill:url(#linearGradient25);stroke:url(#linearGradient33);stroke-width:8.39014;stroke-dasharray:none;enable-background:accumulate;stop-color:#000000;stop-opacity:1"
       d="m 105.33487,57.630609 -2.19947,1.356378 c -15.59652,9.608384 -30.691582,15.439466 -48.216421,9.94987 l -8.714264,-2.729015 3.604621,8.389105 c 8.824151,20.531546 3.224696,39.454183 -2.243598,58.075773 -2.734148,9.31077 -5.443835,18.44937 -5.901639,27.60369 -0.457804,9.1543 1.561073,18.44032 8.110398,26.84187 10.255725,13.1562 22.248379,22.37288 54.570963,30.22355 l 0.98941,0.24154 0.98941,-0.24154 c 32.32261,-7.85067 44.31531,-17.06742 54.571,-30.22355 6.54932,-8.40155 8.56819,-17.68757 8.11039,-26.84187 -0.4578,-9.15432 -3.16749,-18.29292 -5.90164,-27.60369 -5.46829,-18.62159 -11.06776,-37.544227 -2.2436,-58.075773 l 3.60462,-8.389105 -8.71427,2.729015 c -17.52487,5.489605 -32.61754,-0.341462 -48.21412,-9.94987 z m 0,9.692065 c 13.74156,8.154114 28.6814,14.042978 45.2157,11.429342 -6.00324,20.588518 -0.37469,39.681094 4.50112,56.285074 2.73053,9.29841 5.18695,17.91448 5.57416,25.65738 0.38722,7.74289 -1.07061,14.49606 -6.34757,21.2654 -9.45799,12.13286 -18.48976,19.41762 -48.94341,26.94175 -30.453648,-7.52413 -39.485442,-14.80896 -48.943385,-26.94175 -5.276954,-6.76934 -6.73479,-13.52251 -6.347571,-21.2654 0.387219,-7.7429 2.843641,-16.35897 5.574156,-25.65738 4.87582,-16.60398 10.504367,-35.696556 4.501131,-56.285074 16.533825,2.613551 31.474456,-3.275665 45.215669,-11.429342 z"
       id="path23"
       inkscape:label="shiled rim" />
    <path
       style="baseline-shift:baseline;display:inline;overflow:visible;opacity:1;vector-effect:none;fill:url(#linearGradient43);fill-opacity:1;stroke:url(#linearGradient42);stroke-width:1.18915;enable-background:accumulate;stop-color:#000000;stop-opacity:1"
       d="m 105.33487,57.630609 -2.19947,1.356378 c -15.59652,9.608384 -30.691582,15.439466 -48.216421,9.94987 l -8.714264,-2.729015 3.604621,8.389105 c 8.824151,20.531546 3.224696,39.454183 -2.243598,58.075773 -2.734148,9.31077 -5.443835,18.44937 -5.901639,27.60369 -0.457804,9.1543 1.561073,18.44032 8.110398,26.84187 10.255725,13.1562 22.248379,22.37288 54.570963,30.22355 l 0.98941,0.24154 0.98941,-0.24154 c 32.32261,-7.85067 44.31531,-17.06742 54.571,-30.22355 6.54932,-8.40155 8.56819,-17.68757 8.11039,-26.84187 -0.4578,-9.15432 -3.16749,-18.29292 -5.90164,-27.60369 -5.46829,-18.62159 -11.06776,-37.544227 -2.2436,-58.075773 l 3.60462,-8.389105 -8.71427,2.729015 c -17.52487,5.489605 -32.61754,-0.341462 -48.21412,-9.94987 z m 0,9.692065 c 13.74156,8.154114 28.6814,14.042978 45.2157,11.429342 -6.00324,20.588518 -0.37469,39.681094 4.50112,56.285074 2.73053,9.29841 5.18695,17.91448 5.57416,25.65738 0.38722,7.74289 -1.07061,14.49606 -6.34757,21.2654 -9.45799,12.13286 -18.48976,19.41762 -48.94341,26.94175 -30.453648,-7.52413 -39.485442,-14.80896 -48.943385,-26.94175 -5.276954,-6.76934 -6.73479,-13.52251 -6.347571,-21.2654 0.387219,-7.7429 2.843641,-16.35897 5.574156,-25.65738 4.87582,-16.60398 10.504367,-35.696556 4.501131,-56.285074 16.533825,2.613551 31.474456,-3.275665 45.215669,-11.429342 z"
       id="path21"
       inkscape:label="shiled line" />
    <path
       id="path1"
       style="display:inline;opacity:1;fill:url(#linearGradient3);stroke:none;stroke-width:0.345743"
       d="M 105.33518,62.55828 C 89.33153,72.417479 72.683397,78.898848 53.663962,72.941075 72.566049,116.92141 29.430078,154.19712 53.082634,184.53894 c 9.916951,12.72161 20.390917,20.9885 52.252546,28.72721 31.86165,-7.73871 42.335,-16.0056 52.25195,-28.72721 23.65256,-30.34182 -19.48342,-67.61753 -0.58132,-111.597865 -19.01945,5.957773 -35.66697,-0.523596 -51.67063,-10.382795 z"
       inkscape:label="shield" />
    <path
       fill="#a9bacd"
       d="m 147.35369,110.12439 c -2.79663,-22.372774 -16.77958,-34.95745 -43.34724,-34.95745 -23.771017,0 -41.948889,16.77958 -41.948889,44.74554 0,27.26681 16.779574,44.74555 44.745489,44.74555 22.37276,0 38.45318,-13.28384 40.55064,-34.95747 h -26.56766 c -1.39831,7.69065 -5.5932,13.98301 -13.98298,13.98301 -14.682093,0 -16.77954,-11.1864 -16.77954,-23.07193 0,-16.08046 5.593197,-24.47025 15.38126,-24.47025 9.08892,0 13.98295,4.89406 15.38126,13.983 z"
       id="path1-3"
       style="fill:url(#linearGradient25-1);stroke-width:0.699148"
       inkscape:export-filename="C_LightSteelBlue_503x528.png"
       inkscape:export-xdpi="300"
       inkscape:export-ydpi="300"
       inkscape:label="C" />
    <g
       id="g41"
       inkscape:label="banner front"
       transform="matrix(1.1453003,0,0,1.0628712,-15.224421,75.897438)">
      <path
         style="opacity:1;fill:url(#linearGradient37);fill-opacity:1;stroke:url(#linearGradient36);stroke-width:7.86872;stroke-dasharray:none;stroke-opacity:1"
         d="M 105.26437,60.060416 C 82.977891,60.06046 61.717203,62.11942 44.807084,65.75826 v 51.06458 c 16.910119,-3.63884 38.170808,-5.6978 60.457286,-5.69784 22.28667,1e-5 43.54704,2.05897 60.45729,5.69784 V 65.75826 c -16.91025,-3.638869 -38.17062,-5.697832 -60.45729,-5.697844 z"
         id="path33"
         inkscape:label="border" />
      <path
         style="opacity:1;fill:#ff5555;fill-opacity:1;stroke:none;stroke-width:7.86872;stroke-dasharray:none;stroke-opacity:1"
         d="M 105.26437,60.060416 C 82.977891,60.06046 61.717203,62.11942 44.807084,65.75826 v 51.06458 c 16.910119,-3.63884 38.170808,-5.6978 60.457286,-5.69784 22.28667,1e-5 43.54704,2.05897 60.45729,5.69784 V 65.75826 c -16.91025,-3.638869 -38.17062,-5.697832 -60.45729,-5.697844 z"
         id="path37"
         inkscape:label="base" />
    </g>
    <path
       d="m 148.54394,185.72317 c -2.67083,2.4889 -6.09322,3.55795 -10.26715,3.20834 -5.16449,-0.43286 -9.22545,-2.60068 -12.18168,-6.50348 -2.95505,-3.91707 -4.43079,-9.07205 -4.43079,-15.46613 0,-6.91374 1.67433,-12.10796 5.02061,-15.58386 2.90748,-3.03115 6.60574,-4.36895 11.09837,-4.01339 6.01117,0.47566 10.41341,3.01569 13.20911,7.62247 1.54471,2.58522 2.3795,5.12288 2.50198,7.61296 l -7.4774,-0.6029 c -0.49112,-1.94307 -1.11899,-3.4307 -1.88124,-4.4617 -1.36396,-1.83249 -3.37957,-2.85516 -6.04803,-3.06921 -2.71722,-0.21642 -4.85769,0.83122 -6.42381,3.14413 -1.5673,2.29387 -2.34976,5.66393 -2.34501,10.10899 0.004,4.44624 0.8336,7.84841 2.49009,10.20888 1.67433,2.34382 3.7934,3.62216 6.35602,3.83502 2.62922,0.21761 4.63057,-0.56723 6.00404,-2.3569 0.75987,-0.96084 1.38774,-2.44371 1.88481,-4.44981 l 7.41675,0.60884 c -0.63263,4.27977 -2.27485,7.66528 -4.92667,10.15775 z"
       id="text202"
       style="font-weight:bold;font-size:41.8155px;font-family:Helvetica;-inkscape-font-specification:'Helvetica, Bold';fill:url(#linearGradient206);stroke:url(#linearGradient215);stroke-width:1.58563"
       inkscape:label="C"
       aria-label="C" />
    <path
       d="m 106.64769,187.65317 c -2.17615,0.006 -3.92658,-0.48875 -5.25011,-1.48526 -0.79197,-0.58982 -1.648157,-1.62557 -2.569871,-3.10606 l 0.007,3.80885 -6.747712,0.0202 -0.0771,-40.96039 6.868532,0.0214 0.0275,14.56594 c 0.868194,-1.40796 1.825461,-2.48058 2.871911,-3.22023 1.24029,-0.92516 2.81948,-1.38536 4.73759,-1.3818 3.46638,0.005 6.17765,1.44245 8.135,4.31187 1.97161,2.86586 2.96218,6.56294 2.9705,11.09124 0.01,4.69358 -0.95013,8.58568 -2.88013,11.67748 -1.9288,3.09299 -4.6258,4.64602 -8.09338,4.65673 z m 3.74465,-15.49705 c -0.005,-2.14642 -0.24972,-3.92183 -0.73609,-5.3286 -0.92397,-2.66489 -2.6197,-3.99793 -5.08601,-3.99912 -2.4996,-10e-4 -4.21436,1.30331 -5.144264,3.91588 -0.48125,1.39012 -0.719677,3.18812 -0.715517,5.39281 0.005,2.59474 0.508717,4.74354 1.511051,6.44759 1.00365,1.70168 2.52814,2.55074 4.57586,2.54717 1.77422,-0.005 3.15126,-0.83122 4.13112,-2.47939 0.98105,-1.64816 1.4686,-3.81361 1.46385,-6.49634 z"
       id="text44"
       style="font-weight:bold;font-size:41.8155px;font-family:Helvetica;-inkscape-font-specification:'Helvetica, Bold';fill:url(#linearGradient208);stroke:url(#linearGradient214);stroke-width:1.58563"
       inkscape:label="b"
       aria-label="b" />
    <path
       d="m 72.232557,189.05161 -15.460896,1.24148 v -41.76664 l 15.460896,-1.12137 c 2.223716,-0.12367 4.074158,0.0428 5.551324,0.49945 2.515892,0.77651 4.55303,2.38663 6.111297,4.82796 1.2498,1.97518 2.102062,4.14777 2.556562,6.51894 0.45437,2.36998 0.68162,4.64483 0.68162,6.82336 0,5.52243 -0.95762,10.27428 -2.872993,14.25795 -2.597111,5.37616 -6.606341,8.28364 -12.02781,8.71887 z m 5.575583,-31.43884 c -1.152409,-2.17258 -3.432967,-3.13341 -6.841675,-2.88131 l -6.914808,0.51014 v 27.22329 l 6.914808,-0.54701 c 3.538564,-0.27945 6.005819,-2.49722 7.401766,-6.65212 0.762842,-2.27842 1.144322,-4.95164 1.144322,-8.01728 0,-4.23219 -0.568177,-7.4441 -1.704413,-9.63571 z"
       id="text203"
       style="font-weight:bold;font-size:41.8155px;font-family:Helvetica;-inkscape-font-specification:'Helvetica, Bold';display:inline;fill:#1a1a1a;fill-opacity:1;stroke:url(#linearGradient213);stroke-width:1.58563;stroke-opacity:1"
       inkscape:label="D"
       aria-label="D" />
  </g>
</svg>
